<svg xmlns="http://www.w3.org/2000/svg" viewBox="0 0 64 64" width="64" height="64">
  <defs>
    <linearGradient id="goldGradient" x1="0%" y1="0%" x2="100%" y2="100%">
      <stop offset="0%" style="stop-color:#d4af37;stop-opacity:1" />
      <stop offset="50%" style="stop-color:#f7931e;stop-opacity:1" />
      <stop offset="100%" style="stop-color:#b8860b;stop-opacity:1" />
    </linearGradient>
    <filter id="glow">
      <feGaussianBlur stdDeviation="3" result="coloredBlur"/>
      <feMerge> 
        <feMergeNode in="coloredBlur"/>
        <feMergeNode in="SourceGraphic"/>
      </feMerge>
    </filter>
  </defs>
  
  <!-- Background circle -->
  <circle cx="32" cy="32" r="30" fill="#1a1a2e" stroke="url(#goldGradient)" stroke-width="2"/>
  
  <!-- Arabic-inspired calligraphy design -->
  <g fill="url(#goldGradient)" filter="url(#glow)">
    <!-- Main calligraphy strokes -->
    <path d="M15 25 Q25 15 35 25 Q45 35 35 45 Q25 35 15 45 Q10 40 15 35 Q20 30 15 25 Z" opacity="0.8"/>
    <path d="M20 32 Q32 20 44 32 Q40 40 32 36 Q24 40 20 32 Z" opacity="0.6"/>
    
    <!-- Decorative dots (Arabic script style) -->
    <circle cx="18" cy="22" r="1.5" opacity="0.9"/>
    <circle cx="46" cy="38" r="1.5" opacity="0.9"/>
    <circle cx="32" cy="18" r="1" opacity="0.7"/>
    <circle cx="25" cy="48" r="1" opacity="0.7"/>
    
    <!-- Central embellishment -->
    <circle cx="32" cy="32" r="3" fill="none" stroke="url(#goldGradient)" stroke-width="1" opacity="0.8"/>
    <circle cx="32" cy="32" r="1" opacity="0.9"/>
  </g>
</svg>